<svg xmlns="http://www.w3.org/2000/svg" width="246.949" height="173.931" viewBox="0 0 246.949 173.931"><defs><style>.a{fill:#fafafa;}.b{fill:#fff;}.c,.e{fill:none;stroke-miterlimit:2.613;}.c{stroke:#fff;stroke-width:1.351px;}.d{fill:#272568;}.e{stroke:#212121;stroke-width:0.048px;}.f{fill:#354853;}.g,.l{fill:#de3748;}.h{fill:#f5edf0;}.i,.j{fill:#363636;}.j,.k,.l{fill-rule:evenodd;}.k{fill:#f4f4f4;}</style></defs><g transform="translate(0.024)"><path class="a" d="M-1915.892,1019.612c-20.566,4.517-41.589.286-62.193-1.765-13.564-1.349-26.641.488-40.237,1.485-34.566,2.535-72.912-1.925-83.965-33.867-9.214-26.619,5.677-66.113,37.77-81.744,11.1-5.407,22.4-6.474,33.43-5.364,6.622.667,14,3.206,21.139.532,7.524-2.822,13.09-10.655,18.176-16.3,7.568-8.4,15.563-17.207,25.716-22.888,23.29-13.027,37.142-.327,44.138,20.554,3.4,10.151,5.208,20.73,7.949,31.054,3.885,14.644,12.315,25.279,21.81,37.063,8.452,10.5,16.364,22.769,15,36.084-1.544,15.112-15.159,27.506-30.34,32.788a72.849,72.849,0,0,1-8.393,2.366" transform="translate(2123.929 -854.425)"/><path class="b" d="M-1958.624,932.5c.3-1.614-1.416-4.939-1.416-4.939-1.013-1.425-5.159-9.025-5.159-9.025a17.993,17.993,0,0,0-6.37-7.223,4.715,4.715,0,0,1-3.237-3.894c6.776.094,10.214-1.995,10.214-1.995a2.829,2.829,0,0,0,1.922-1.994l.405-3.325c-.607-2.186-8.8-2.375-8.8-2.375-4.045.189-3.438,7.22-3.438,7.22l-.811.475c-3.54-8.361-11.125-22.894-11.125-22.894-2.528-3.706-7.483-4.275-7.483-4.275l-3.64-.855c-4.149-.8-19.707-1.265-21.806-1.324v-.006l-.123,0-.12,0v.006c-2.1.059-17.661.525-21.805,1.324l-3.64.855s-4.958.57-7.484,4.275c0,0-7.587,14.533-11.126,22.894l-.809-.475s.608-7.031-3.438-7.22c0,0-8.191.189-8.8,2.375l.406,3.325a2.827,2.827,0,0,0,1.918,1.994s3.442,2.089,10.217,1.995a4.715,4.715,0,0,1-3.236,3.894,17.977,17.977,0,0,0-6.374,7.223s-4.146,7.6-5.156,9.025c0,0-1.721,3.325-1.417,4.939,0,0-1.286,11.592-.037,21.281a46.066,46.066,0,0,0,1.812,6.477c.041,2.913.438,10.227,3.236,13.759,0,0,1.417,1.9,6.069,1.614l8.292.031s2.733.16,4.057-3.74a19.436,19.436,0,0,0,7.821-.677s12.683,1.019,29.61.805c16.93.214,29.614-.805,29.614-.805a19.426,19.426,0,0,0,7.819.677c1.322,3.9,4.059,3.74,4.059,3.74l8.292-.031c4.653.286,6.069-1.614,6.069-1.614,2.8-3.532,3.193-10.846,3.237-13.759a46.363,46.363,0,0,0,1.809-6.477C-1957.337,944.089-1958.624,932.5-1958.624,932.5Z" transform="translate(2175.531 -807.991)"/><path class="c" d="M-1958.624,932.5c.3-1.614-1.416-4.939-1.416-4.939-1.013-1.425-5.159-9.025-5.159-9.025a17.993,17.993,0,0,0-6.37-7.223,4.715,4.715,0,0,1-3.237-3.894c6.776.094,10.214-1.995,10.214-1.995a2.829,2.829,0,0,0,1.922-1.994l.405-3.325c-.607-2.186-8.8-2.375-8.8-2.375-4.045.189-3.438,7.22-3.438,7.22l-.811.475c-3.54-8.361-11.125-22.894-11.125-22.894-2.528-3.706-7.483-4.275-7.483-4.275l-3.64-.855c-4.149-.8-19.707-1.265-21.806-1.324v-.006l-.123,0-.12,0v.006c-2.1.059-17.661.525-21.805,1.324l-3.64.855s-4.958.57-7.484,4.275c0,0-7.587,14.533-11.126,22.894l-.809-.475s.608-7.031-3.438-7.22c0,0-8.191.189-8.8,2.375l.406,3.325a2.827,2.827,0,0,0,1.918,1.994s3.442,2.089,10.217,1.995a4.715,4.715,0,0,1-3.236,3.894,17.977,17.977,0,0,0-6.374,7.223s-4.146,7.6-5.156,9.025c0,0-1.721,3.325-1.417,4.939,0,0-1.286,11.592-.037,21.281a46.066,46.066,0,0,0,1.812,6.477c.041,2.913.438,10.227,3.236,13.759,0,0,1.417,1.9,6.069,1.614l8.292.031s2.733.16,4.057-3.74a19.436,19.436,0,0,0,7.821-.677s12.683,1.019,29.61.805c16.93.214,29.614-.805,29.614-.805a19.426,19.426,0,0,0,7.819.677c1.322,3.9,4.059,3.74,4.059,3.74l8.292-.031c4.653.286,6.069-1.614,6.069-1.614,2.8-3.532,3.193-10.846,3.237-13.759a46.363,46.363,0,0,0,1.809-6.477C-1957.337,944.089-1958.624,932.5-1958.624,932.5Z" transform="translate(2175.531 -807.991)"/><rect class="d" width="64.156" height="0.274" transform="translate(177.389 166.036)"/><rect class="e" width="64.156" height="0.274" transform="translate(177.389 166.036)"/><path class="f" d="M-2080.214,902.431s-.305,10.545,3.234,15.011c0,0,1.416,1.9,6.068,1.614l8.295.031s3.942.255,4.65-6.587Z" transform="translate(2177.052 -751.419)"/><path class="g" d="M-2019.405,876.066s-17.6.475-22.045,1.331l-3.643.855s-4.955.57-7.484,4.275c0,0-7.583,14.533-11.124,22.894l-.809-.475s.608-7.031-3.438-7.22c0,0-8.191.189-8.8,2.375l.4,3.325a2.836,2.836,0,0,0,1.922,1.994s3.438,2.089,10.214,1.995a4.71,4.71,0,0,1-3.237,3.894,17.99,17.99,0,0,0-6.37,7.223s-4.146,7.6-5.159,9.025c0,0-1.717,3.325-1.416,4.939,0,0-1.284,11.592-.035,21.281,0,0,2.058,10.925,6.1,12.919,0,0,5.159,2.567,15.172,4.848a19.818,19.818,0,0,0,10.009-.3s12.743,1.026,29.734.805Z" transform="translate(2175.448 -807.991)"/><path class="f" d="M-2035.357,895.374l-29.293.318a5.162,5.162,0,0,0-3.3.95l-4.922,4.052s-1.079.824-.473,3.1c0,0,2.832,8.742,6.541,12.731,0,0,1.349,2.787,5.933,2.661,0,0,12.438.7,25.518.7v-1.9l-25.182-.824s-2.831.507-4.381-1.456a77.974,77.974,0,0,1-6.541-12.287s-.471-1.708.406-2.281l4.046-3.039a4.249,4.249,0,0,1,2.425-.761l29.227-.126Z" transform="translate(2191.401 -766.562)"/><path class="f" d="M-2077.957,898.752s-1.752-1.013-1.551,1.9l.768,7.345a7.293,7.293,0,0,0,5.231,5.385l7.688,2.658a23.023,23.023,0,0,0,6.741,1.2s26.025,1.394,36.576.95v-2.661s-29.564-.377-34.959-1.9a11.628,11.628,0,0,1-7.886-5.7l-3.1-5.131a5.892,5.892,0,0,0-2.967-2.026Z" transform="translate(2178.548 -759.679)"/><path class="b" d="M-2071.737,903.6a3.144,3.144,0,0,1-3.236,3.042,3.145,3.145,0,0,1-3.237-3.042,3.142,3.142,0,0,1,3.237-3.039,3.142,3.142,0,0,1,3.236,3.039" transform="translate(2181.367 -755.437)"/><path class="f" d="M-2064.074,878.8s-9.707,19.761-10.384,22.042c0,0-1.21,3.926,3.776,3.926l37.587.507V878.295s-19.787-.377-30.979.507" transform="translate(2189.138 -803.381)"/><path class="f" d="M-2076.619,898.135h-.286a22.8,22.8,0,0,1,1.015-5.741c.2-1.932,2.518-2.8,2.615-2.841,5.023-.834,5.875-3.03,5.881-3.051l.275.085c-.035.1-.9,2.365-6.079,3.224,0,0-2.22.843-2.412,2.636a22.583,22.583,0,0,0-1.01,5.688" transform="translate(2184.167 -785.599)"/><path class="f" d="M-2063.294,893.923a47.544,47.544,0,0,1-10.908-1.148l.076-.261a50.321,50.321,0,0,0,15.423.947l24.781-.377,0,.268-24.773.377c-1.62.138-3.164.2-4.6.2" transform="translate(2189.965 -772.699)"/><path class="f" d="M-2027.478,902.431s.305,10.545-3.234,15.011c0,0-1.416,1.9-6.068,1.614l-8.3.031s-3.941.255-4.649-6.587Z" transform="translate(2242.488 -751.419)"/><path class="g" d="M-2061.474,876.066s17.6.475,22.045,1.331l3.642.855s4.955.57,7.484,4.275c0,0,7.584,14.533,11.124,22.894l.808-.475s-.607-7.031,3.438-7.22c0,0,8.191.189,8.8,2.375l-.4,3.325a2.837,2.837,0,0,1-1.922,1.994s-3.438,2.089-10.214,1.995a4.708,4.708,0,0,0,3.237,3.894,17.985,17.985,0,0,1,6.37,7.223s4.146,7.6,5.159,9.025c0,0,1.718,3.325,1.416,4.939,0,0,1.283,11.592.035,21.281,0,0-2.057,10.925-6.1,12.919,0,0-5.159,2.567-15.173,4.848a19.82,19.82,0,0,1-10.009-.3s-12.744,1.026-29.733.805Z" transform="translate(2217.278 -807.991)"/><path class="f" d="M-2061.474,895.374l29.292.318a5.161,5.161,0,0,1,3.3.95l4.923,4.052s1.079.824.472,3.1c0,0-2.831,8.742-6.54,12.731,0,0-1.35,2.787-5.933,2.661,0,0-12.437.7-25.518.7v-1.9l25.182-.824s2.831.507,4.382-1.456a77.923,77.923,0,0,0,6.54-12.287s.472-1.708-.4-2.281l-4.046-3.039a4.249,4.249,0,0,0-2.426-.761l-29.227-.126Z" transform="translate(2217.278 -766.562)"/><path class="f" d="M-2006.021,898.752s1.752-1.013,1.551,1.9l-.768,7.345a7.293,7.293,0,0,1-5.231,5.385l-7.688,2.658a23.019,23.019,0,0,1-6.741,1.2s-26.025,1.394-36.575.95v-2.661s29.563-.377,34.958-1.9a11.629,11.629,0,0,0,7.887-5.7l3.1-5.131a5.9,5.9,0,0,1,2.966-2.026Z" transform="translate(2217.278 -759.679)"/><path class="b" d="M-2046.72,903.6a3.144,3.144,0,0,0,3.236,3.042,3.145,3.145,0,0,0,3.237-3.042,3.142,3.142,0,0,0-3.237-3.039,3.142,3.142,0,0,0-3.236,3.039" transform="translate(2248.936 -755.437)"/><path class="f" d="M-2030.5,878.8s9.708,19.761,10.385,22.042c0,0,1.213,3.926-3.775,3.926l-37.589.507V878.295s19.786-.377,30.979.507" transform="translate(2217.278 -803.381)"/><path class="f" d="M-2039.292,898.135h-.286a22.226,22.226,0,0,0-1.007-5.662c-.195-1.822-2.419-2.661-2.441-2.668-5.156-.853-6.017-3.121-6.052-3.218l.274-.085c.006.022.858,2.218,5.853,3.045.126.044,2.438.915,2.646,2.875a22.314,22.314,0,0,1,1.012,5.713" transform="translate(2243.876 -785.599)"/><path class="f" d="M-2032.1,893.923c-1.441,0-2.985-.057-4.612-.2l-24.76-.377,0-.268,24.772.377a50.362,50.362,0,0,0,15.433-.947l.076.261a47.573,47.573,0,0,1-10.913,1.148" transform="translate(2217.275 -772.699)"/><path class="h" d="M-2076.745,890.061s-2.425,5.414-2.124,14.533a2.96,2.96,0,0,0,2.124,2.756l10.113,3.23s2.529.664,3.643-.475l3.842-3.231s.808-.758-.709-1.994c0,0-6.068-10.356-10.821-13.681,0,0-1.617-1.519-6.068-1.139" transform="translate(2179.896 -778.094)"/><path class="b" d="M-2068.61,894.5s-2.292-2.218-7.282-2.853a3.66,3.66,0,0,0-2.293,2.155V899s-.4,1.9,2.021,2.281l7.553,2.088s-2.966-5.382,0-8.865" transform="translate(2181.367 -774.555)"/><path class="h" d="M-2032.511,890.061s2.426,5.414,2.124,14.533a2.962,2.962,0,0,1-2.124,2.756l-10.113,3.23s-2.529.664-3.643-.475l-3.84-3.231s-.809-.758.707-1.994c0,0,6.068-10.356,10.821-13.681,0,0,1.617-1.519,6.068-1.139" transform="translate(2241.205 -778.094)"/><path class="b" d="M-2047.714,894.5s2.293-2.218,7.282-2.853a3.66,3.66,0,0,1,2.293,2.155V899s.4,1.9-2.022,2.281l-7.553,2.088s2.966-5.382,0-8.865" transform="translate(2246.803 -774.555)"/><rect class="d" width="64.156" height="0.274" transform="translate(0 172.617)"/><rect class="e" width="64.156" height="0.274" transform="translate(0 172.617)"/><path class="i" d="M-2081.463,897.753l-17.377-11.4,8.689-3.057Z" transform="translate(2137.1 -792.47)"/><path class="i" d="M-2085.289,894.819l12.057-16.925-9.206.3Z" transform="translate(2166.178 -804.069)"/><path class="j" d="M-2071.884,908.446l-27.191-6.159a38.433,38.433,0,0,0,4.016,4.873l12.382,14.379-17.65,5.9c2.547,1.328,12.812,1.777,15.76,2.539l1.211.462c-1.74,2.781-10.262,11.866-12.379,15.26l22.369-8.1,5.826,24.071c1.268-1.321,4.213-7.653,5.269-9.692l4.794-9.267a2.509,2.509,0,0,1,.57-.673l7.027,5.867c.975.9,2.215,1.9,3.476,2.948a20.257,20.257,0,0,0,3.628,2.822l-6.314-17.21,25.43,4.492-10.72-8.544c-1.8-1.375-3.522-2.715-5.464-4.171-1.223-.915-4.284-2.973-5.3-4.222.975-1.419,14.979-10.623,18.329-13.253l1.4-1.337-23.895.938,5.992-20.878c-2.689,1.412-12.538,13.413-15.6,15.408l-1.39-2.4c-.418-.833-.824-1.5-1.249-2.325-1.759-3.41-5.961-12.8-7.342-14.668Z" transform="translate(2133.911 -787.74)"/><path class="k" d="M-2032.834,917.833a18.818,18.818,0,0,1,1.714,2.517c.839,1.35,1.648,2.715,2.454,4.083,1.252,2.13,2.472,4.275,3.711,6.411,1.085,1.872,3.479,5.367,3.788,7.371l.013.082,1.025,14.433v.079c-.007.677.176,1.5.214,2.208a6.7,6.7,0,0,1-4.256,6.713,6.1,6.1,0,0,1-4.045.239c-.484-.135-.943-.321-1.421-.478l-.173-.057-.16-.088a7.482,7.482,0,0,1-1.976-1.658,3.393,3.393,0,0,1-.387-.661c-.023-.038-.051-.072-.073-.107a4.732,4.732,0,0,1-.645-1.447l-.031-.091-.019-.091a29.5,29.5,0,0,1-.466-4.256c-.088-1.227-.147-2.463-.258-3.687-.242-2.646-.365-5.3-.566-7.952,0-.035-.006-.085-.012-.123-.091-.167-.24-.362-.337-.525l-3.567-6.084c-2.378,4.8-4.829,9.573-7.172,14.392a8.192,8.192,0,0,1-2.76,3.061c-2.274,1.614-4.668,3.051-6.926,4.6l-.97.7-.019.012c-6.983,4.763-14.083,9.346-21.083,14.083a8.143,8.143,0,0,1-3.847,1.74,6.931,6.931,0,0,1-6.861-3,7.073,7.073,0,0,1,1.95-10.028l18.435-12.338c.792-.516,1.57-1.054,2.355-1.579l-10.547-5.326c-.268-.135-.608-.333-.916-.481-.384.145-.792.333-1.165.466-1.167.418-2.334.887-3.488,1.337l-5.487,2.152c-2.019.793-4.039,1.585-6.064,2.356-.736.283-1.476.56-2.214.83a13.243,13.243,0,0,1-1.4.456,6.966,6.966,0,0,1-6.615-1.963,7.132,7.132,0,0,1-.654-9.233,7.665,7.665,0,0,1,3.941-2.73l18.468-7.134c4.191-1.62,5.159-2.243,9.447-.091,1.126.566,2.258,1.12,3.379,1.7s2.277,1.135,3.409,1.718a5.8,5.8,0,0,0,3.007.981,2.629,2.629,0,0,0,2.265-.988,28.476,28.476,0,0,0,5.861-8.248c.258-.554.531-1.11.752-1.68l.031-.079a24.941,24.941,0,0,1-1.532-3.775c-1.924-4.948-3.721-9.947-5.589-14.917l-4.181-11.133a11.115,11.115,0,0,1-1.163-4.813,6.734,6.734,0,0,1,8.052-6.14,6.579,6.579,0,0,1,3.762,2.208,15.174,15.174,0,0,1,2.247,4.813c.893,2.479,1.843,4.933,2.768,7.4q1.812,4.832,3.618,9.664a12.535,12.535,0,0,1,2.894-6,12.237,12.237,0,0,1,17.116-1.01,12.484,12.484,0,0,1,4.042,8.192,12.1,12.1,0,0,1-11.1,12.973c-.192.019-.384.031-.572.038" transform="translate(2123.563 -800.83)"/><path class="l" d="M-2030.383,958.185c1.3.431,2.233.994,4.1.274a4.65,4.65,0,0,0,2.963-4.709c-.041-.714-.224-1.752-.22-2.337l-1.012-14.269c-.22-1.432-2.694-5.207-3.539-6.663-.818-1.409-6.647-11.655-7.667-12.706-.588-.6-6.4-3.879-7.964-4.747-.255-.145-.463-.286-.787-.462-.447-.242-.456-.17-.648-.717-.45-1.274-.925-2.491-1.4-3.747-1.877-4.951-3.718-9.9-5.555-14.794-.943-2.517-1.888-4.955-2.774-7.421-.987-2.73-1.46-5.042-4.549-5.735a4.711,4.711,0,0,0-5.59,4.278,9.825,9.825,0,0,0,1.042,3.989l4.181,11.133c1.859,4.932,3.671,9.988,5.581,14.895a25.013,25.013,0,0,0,1.45,3.58c.531.805.573.374.054,1.733-.227.588-.532,1.211-.809,1.806a30.715,30.715,0,0,1-6.339,8.9,4.526,4.526,0,0,1-3.662,1.507,7.486,7.486,0,0,1-3.888-1.2c-1.154-.591-2.28-1.135-3.416-1.721s-2.206-1.111-3.36-1.689c-3.629-1.821-4.032-1.28-7.808.17l-18.468,7.137a5.755,5.755,0,0,0-3.027,2.02,5.108,5.108,0,0,0,5.169,8.04c1.394-.321,15.716-6.087,18.431-7.062,2.289-.821,1.507-.991,3.674.117l13.592,6.864a27.233,27.233,0,0,1-2.557,1.768c-.865.572-1.749,1.189-2.652,1.774l-18.412,12.325a5.111,5.111,0,0,0,3.482,9.346,6.371,6.371,0,0,0,3.014-1.413c7.065-4.784,14.19-9.384,21.076-14.077l.947-.683c2.167-1.481,4.747-3.045,6.936-4.6a6.22,6.22,0,0,0,2.111-2.293c2.664-5.474,5.37-10.7,8.028-16.128a8.566,8.566,0,0,1,.792-1.479c.145-.047.3.312.406.494l5.065,8.638a2.73,2.73,0,0,1,.639,1.548c.191,2.554.324,5.282.563,7.921.158,1.727.353,6.247.68,7.676a3.23,3.23,0,0,0,.364.9c.352.488.22.447.434.73a6.023,6.023,0,0,0,1.327,1.1m-11.787-60.6a10.119,10.119,0,0,0,8.342,16.814,10.05,10.05,0,0,0,9.261-10.859,10.459,10.459,0,0,0-3.35-6.763A10.189,10.189,0,0,0-2042.17,897.586Z" transform="translate(2124.943 -799.451)"/></g></svg>