<svg xmlns="http://www.w3.org/2000/svg" width="295.892" height="248.421" viewBox="0 0 295.892 248.421"><defs><style>.a{fill:#f4f4f4;}.b{fill:#b6313e;}.c{fill:#ef7f8e;}.d{fill:#f1f1f2;}.e,.f,.g,.h,.i,.j{fill:none;stroke-linecap:round;stroke-linejoin:round;}.e{stroke:#da3948;}.e,.j{stroke-width:2.4px;}.f,.g,.h,.i,.j{stroke:#ef7f8e;}.f{stroke-width:3px;}.g{stroke-width:3.84px;}.h{stroke-width:6px;}.i{stroke-width:4.8px;}.k{fill:#1a2528;}.l{fill:#18272a;}.m{fill:#2e2e2d;}.n{fill:#151513;}.o{fill:#727373;}.p,.z{fill:#da3948;}.q{fill:#344651;}.r{fill:#341114;}.s,.y{fill:#fff;}.t{fill:#344853;}.u{fill:#d2d2d1;}.v{fill:#112d4e;}.w{fill:#e7e7e7;}.x{fill:#e3e2e2;}.y,.z{fill-rule:evenodd;}</style></defs><g transform="translate(-117.786 -132.422)"><path class="a" d="M354.5,338.08c-25.606,5.624-51.781.354-77.432-2.2-16.888-1.68-33.17.6-50.1,1.846-43.032,3.157-90.775-2.395-104.539-42.162-11.471-33.14,7.073-82.311,47.027-101.774,13.819-6.731,27.889-8.061,41.62-6.677,8.244.83,17.436,3.991,26.317.661,9.367-3.513,16.3-13.266,22.629-20.292,9.424-10.459,19.374-21.423,32.015-28.493,29-16.22,46.243-.407,54.954,25.589,4.235,12.638,6.486,25.807,9.9,38.662,4.836,18.231,15.334,31.471,27.151,46.144,10.524,13.067,20.373,28.347,18.677,44.926-1.923,18.811-18.874,34.242-37.771,40.82a91.521,91.521,0,0,1-10.45,2.946" transform="translate(-0.521 0)"/><path class="b" d="M255.48,205.732H424.907l2.479,1.181s2.133,115.031-14.149,144.373c-25,45.04-72.159,58.89-72.159,58.89s-46.454-14.381-71.45-59.419c-16.281-29.342-14.148-145.025-14.148-145.025" transform="translate(-55.057 -29.333)"/><path class="c" d="M252.529,194.408l85.6-16.978,85.6,16.978s2.136,115.682-14.146,145.025c-25,45.038-71.452,59.419-71.452,59.419s-46.457-14.381-71.453-59.419c-16.28-29.342-14.146-145.025-14.146-145.025" transform="translate(-53.877 -18.009)"/><path class="d" d="M351.313,391.072c11.627-5.107,38.367-19.374,54.134-47.785,7.807-14.074,11.75-69.318,11.792-119.12l-65.927-13.075L285.39,224.167c.045,49.807,3.986,105.057,11.79,119.12,15.77,28.41,42.5,42.678,54.133,47.785" transform="translate(-67.062 -31.477)"/><line class="e" x2="8.341" transform="translate(177.648 189.019)"/><line class="e" y1="8.341" transform="translate(181.819 184.848)"/><line class="f" x2="10.163" transform="translate(358.482 206.812)"/><line class="f" y1="10.163" transform="translate(363.563 201.731)"/><line class="g" x2="13.046" transform="translate(398.712 223.854)"/><line class="g" y1="13.046" transform="translate(405.235 217.331)"/><line class="f" x2="10.163" transform="translate(378.079 244.78)"/><line class="f" y1="10.163" transform="translate(383.16 239.699)"/><line class="h" x2="15.654" transform="translate(390.929 277.988)"/><line class="h" y1="15.654" transform="translate(398.756 270.161)"/><line class="i" x2="10.163" transform="translate(183.943 257.376)"/><line class="i" y1="10.163" transform="translate(189.025 252.294)"/><line class="i" x2="10.163" transform="translate(229.637 149.844)"/><line class="i" y1="10.163" transform="translate(234.719 144.763)"/><line class="j" x2="7.331" transform="translate(164.108 217.601)"/><line class="j" y1="7.331" transform="translate(167.773 213.936)"/><rect class="k" width="60.042" height="0.405" transform="translate(152.927 331.391)"/><rect class="k" width="40.878" height="0.405" transform="translate(117.786 317.255)"/><rect class="k" width="40.878" height="0.405" transform="translate(369.602 311.04)"/><rect class="k" width="18.151" height="0.405" transform="translate(368.322 328.817)"/><path class="l" d="M489.077,410.092a22.047,22.047,0,0,0-4.01,11.357,103.858,103.858,0,0,0,4.01-11.357" transform="translate(-146.957 -111.102)"/><path class="l" d="M232.441,405.025c-5.853,0-10.6,7.934-10.6,17.72s4.745,17.72,10.6,17.72h10.251V405.025Z" transform="translate(-41.635 -109.074)"/><path class="l" d="M260.129,422.746c0,9.786-4.745,17.72-10.6,17.72s-10.6-7.934-10.6-17.72,4.744-17.72,10.6-17.72,10.6,7.933,10.6,17.72" transform="translate(-48.473 -109.075)"/><path class="m" d="M259.146,425.7c0,7.34-3.424,13.29-7.648,13.29s-7.647-5.95-7.647-13.29,3.424-13.29,7.647-13.29,7.648,5.95,7.648,13.29" transform="translate(-50.441 -112.029)"/><path class="n" d="M385.8,425.6a36.914,36.914,0,0,0,1.152-5.534c1.738-13.353-3.937-25.064-12.676-26.157s-16.853,8.9-18.969,22.2a57.148,57.148,0,0,0-.8,9.492Z" transform="translate(-94.716 -104.592)"/><path class="l" d="M358.062,405.025c-5.853,0-10.6,7.934-10.6,17.72s4.744,17.72,10.6,17.72h10.252V405.025Z" transform="translate(-91.899 -109.074)"/><path class="l" d="M385.75,422.746c0,9.786-4.744,17.72-10.6,17.72s-10.6-7.934-10.6-17.72,4.745-17.72,10.6-17.72,10.6,7.933,10.6,17.72" transform="translate(-98.737 -109.075)"/><path class="o" d="M384.767,425.7c0,7.34-3.423,13.29-7.647,13.29s-7.647-5.95-7.647-13.29,3.423-13.29,7.647-13.29,7.647,5.95,7.647,13.29" transform="translate(-100.705 -112.029)"/><path class="p" d="M385.485,336.57q-.735-.444-1.488-.867a70.118,70.118,0,0,0-19.281-7.35,151.2,151.2,0,0,0-20.93-2.612c-7.272-.54-14.548-.615-21.834-.607-7.58.009-17.338.548-24.912,1.347a72.849,72.849,0,0,0-9.927,1.847,55.176,55.176,0,0,0-9.625,3.413c-8.788,3.906-23.929,14.63-27.735,17.314a11.2,11.2,0,0,1-3.867,1.718,52.4,52.4,0,0,0-14.786,5.416c-1.263.738-2.394,1.473-3.643,2.223a33.656,33.656,0,0,1-4.151,1.872c-1.484.648-3.109,1.173-4.5,1.838a20.434,20.434,0,0,0-3.564,2.119,5.856,5.856,0,0,0-2.457,3.388c-.185,1.238.338,2.987-.375,4.081a7.232,7.232,0,0,1-1.256,1.116c-1.4.959-1.5,3.128-1.564,4.746-.181,4.659.515,8.909.276,11.469a14.553,14.553,0,0,0-.086,4.739c.272,1.154,1.02,3.347,2.133,3.965.458.254.834.224,1.275.58.354.284.57.634,1.009.812a2.494,2.494,0,0,0,.979.147h83.865a63.917,63.917,0,0,1,1.316-12.2,38.928,38.928,0,0,1,4.791-11.579c5.559-8.2,13.059-6.379,15.593-4.412,4.4,3.418,6.111,9.958,6.111,15.223a37.243,37.243,0,0,1-1.687,11.792h44.288c10.58-11.04,13.666-35.593,16.029-61.542" transform="translate(-36.722 -77.107)"/><path class="c" d="M284.327,354.232a12.217,12.217,0,0,0-5.767,1.067c-1.35.692-3.746,2.971-2.451,4.627.768.982,2.081.011,2.749-.473.84-.609,4.876-3.173,5.746-3.825,1.281-.961,1.332-1.36-.277-1.4" transform="translate(-63.199 -88.749)"/><path class="q" d="M367.694,332.01a297.636,297.636,0,0,0-40.5-1.216c-3.167.083-7.6.387-10.58.757-3.3.41-4.489.863-8.26,2.549a75.984,75.984,0,0,0-8.633,4.62,169.953,169.953,0,0,0-15.309,10.771c-.833.713-3.3,2.655-1.036,2.5,6.917-.476,19.992-.795,26.306-.774,20.75.067,29.927,1.734,33.124,1.683,1.237-.019,2.761.306,3.9-.3,1.168-.624,2.284-2.227,3.183-3.2,2.425-2.626,12.341-12.5,14.892-14.765.37-.328,1.6-1.533,2.918-2.623" transform="translate(-65.882 -79.304)"/><path class="r" d="M262.295,444.748a5.983,5.983,0,0,0-3.65-.985h-35.75c-2.484,0-3.456-.225-5.441,1.579-1.834,1.667.557,1.4,1.713,1.4h44.366c.479,0,.692-.305.514-.663a6.581,6.581,0,0,0-1.751-1.335" transform="translate(-39.611 -124.57)"/><path class="c" d="M458.61,376.908c-16.6,1.514-38.086,3.734-45.354,4.693-2.742.362-5.53.6-8.267.991-1.218.176-6.806.7-6.808,1.987,0,1.443,3.1,1.677,5.263,1.744a36.263,36.263,0,0,0,7.854-.459c5.245-.986,10.134-2.521,15.359-3.642,5.359-1.151,10.843-2.039,16.277-2.649,2.75-.308,9.1-.962,15.509-1.613.056-.35.113-.7.167-1.052" transform="translate(-112.192 -97.824)"/><path class="c" d="M457.508,420.522c-1.34-.034-2.68.05-4.022.149-3.816.281-27.091,2.474-34.9,3.421-.8.1-8.211.946-7.263,2.283.3.425,1.81.274,2.262.279,1.69.02,37.623-2.811,42.14-3.161l.693-.05q.568-1.443,1.095-2.922" transform="translate(-117.415 -115.272)"/><path class="s" d="M338.444,397.438h0a1.926,1.926,0,1,1,1.543-1.888,1.742,1.742,0,0,1-1.543,1.888m0-5.115a3.292,3.292,0,1,0,2.639,3.227A2.978,2.978,0,0,0,338.444,392.323Z" transform="translate(-87.234 -103.992)"/><path class="c" d="M416.982,365.32c-.5-.877-26.831-.079-41.557.556-2.3.1-19.842,1.265-22.137,1.39a125.964,125.964,0,0,0-14.25,1.856,193.293,193.293,0,0,0-29.789,7.654c-2.375.786-13.708,5.416-15.033,6.9-.727.815,3.473-1.642,8.924-3.4a214.327,214.327,0,0,1,36.373-8.236,76.818,76.818,0,0,1,10.908-.493c2.553.043,7.409.026,9.96.006,4.344-.035,8.59-.767,16.155-1.437,10.9-.964,41.15-3.563,40.445-4.794" transform="translate(-70.561 -93.032)"/><path class="q" d="M461.582,342.209c-2.477-1.481-5.309-3.074-7.422-4.044a50.885,50.885,0,0,0-13.933-4.392,54.462,54.462,0,0,0-15.256-.5c-4.419.584-7.949,3.07-11.2,5.957-3.587,3.19-6.835,6.863-10.057,10.262-.718.757-3.892,3.922-3.31,4.777.491.723,2.395,1.049,3.211,1.2q1.91.362,3.844.581a28.755,28.755,0,0,0,3.059.205c4.587.019,22.446-1.415,27.734-1.775,5.864-.4,11.722-.869,17.579-1.35a20.529,20.529,0,0,0,3.845-.563q.4-.116.779-.25.622-4.885,1.123-10.117" transform="translate(-113.055 -80.23)"/><path class="t" d="M330.246,338.687a47.629,47.629,0,0,0-18.671,4.4c-4.839,2.094-13.289,7.44-15.528,9.612-.264.255-.536.8-.152.8h4.894c1.6,0,3.055-.775,4.569-1.21A37.073,37.073,0,0,1,315.65,351.1c.243,0,.227-.211.322-.364,1.5-2.4,5.984-2.194,8.494-.989.131.063.654.151.825-.212,1.315-2.789,3.893-7.675,5.346-10.172.14-.24.245-.7-.39-.676" transform="translate(-71.189 -82.53)"/><path class="t" d="M340.344,358.922c-1.317-.834-3.694-1.238-5.11-.335-.229.146-.66.407.009.575a1.5,1.5,0,0,1,.86.443c.263.368.23,1.232.79,1.445a18.714,18.714,0,0,0,2.773.07c.144,0,.3-.011.359-.181.1-.275.429-1.346.547-1.633.079-.192-.1-.3-.229-.384" transform="translate(-86.866 -90.288)"/><path class="t" d="M377.986,350.872H367.561a1.212,1.212,0,0,1-1.221-1.358l.435-4.417a1.238,1.238,0,0,1,1.257-1.041h8.879a1.381,1.381,0,0,1,1.348,1.041l.826,4.417a1.1,1.1,0,0,1-1.1,1.358m6.491-5.245c-6.454-4.273-11.986-5.65-18.944-6.18-.769-.059-1.013-.138-1.464.581-.518.826-4.392,10.358-5.2,13-.17.554-.273.873.529.91,5.955.273,9.711.6,15.92,1.073a2.429,2.429,0,0,0,2.228-.684c1.107-1.089,4.855-4.966,7.066-7.239C385.381,346.29,384.917,345.918,384.477,345.627Z" transform="translate(-96.413 -82.82)"/><path class="s" d="M460.621,363.069a14.288,14.288,0,0,1-1.869.694,20.182,20.182,0,0,1-3.813.585c-5.763.481-11.527.95-17.3,1.35-5.2.361-22.773,1.795-27.287,1.775a27.7,27.7,0,0,1-3.01-.205q-1.9-.22-3.782-.581c-.773-.149-2.536-.459-3.1-1.127a.833.833,0,0,0-.061.771c.491.723,2.395,1.049,3.211,1.2q1.909.362,3.844.581a28.746,28.746,0,0,0,3.059.205c4.587.019,22.446-1.415,27.734-1.775,5.864-.4,11.722-.869,17.579-1.35a20.475,20.475,0,0,0,3.845-.563q.4-.116.779-.25c.056-.435.109-.875.163-1.314" transform="translate(-113.055 -92.287)"/><path class="c" d="M432.794,359.922c-.561-2.957-6.745-4.039-9.265-4.2-1.751-.109-3.733-.266-5.066.974a6.409,6.409,0,0,0-1.971,4.121,4.453,4.453,0,0,0,1.593,3.825c1.337.988,4.325.741,5.876.543,2.875-.367,9.637-1.025,8.833-5.266" transform="translate(-119.513 -89.32)"/><path class="u" d="M382.679,421.315a.279.279,0,0,0-.523.149q.019.417.019.841c0,6.239-2.91,11.3-6.5,11.3a4.719,4.719,0,0,1-3.447-1.72.28.28,0,0,0-.478.237c.739,4.827,3.27,8.384,6.28,8.384,3.59,0,6.5-5.058,6.5-11.3a16.388,16.388,0,0,0-1.851-7.891" transform="translate(-101.615 -115.534)"/><path class="v" d="M229.257,386.026a.214.214,0,0,1-.211-.175,8.856,8.856,0,0,1,1.741-6.774c4.045-5.841,14.446-10.993,26.5-13.125a.214.214,0,0,1,.074.422c-11.944,2.113-22.236,7.2-26.219,12.947a8.447,8.447,0,0,0-1.672,6.452.214.214,0,0,1-.171.25.176.176,0,0,1-.04,0" transform="translate(-44.466 -93.439)"/><path class="v" d="M456.108,386.936a1.446,1.446,0,0,1-1.435-.941.212.212,0,0,1,.4-.146,1.022,1.022,0,0,0,1.085.662,33.507,33.507,0,0,0,4.714-.348c1.4-.2,1.951-.509,1.951-1.115a.212.212,0,0,1,.424,0c0,1.063-1.113,1.365-2.317,1.534a33.77,33.77,0,0,1-4.76.353h-.059" transform="translate(-134.79 -100.996)"/><path class="v" d="M346.8,380.529a.212.212,0,0,1-.212-.209c-.022-1.564.585-1.8,1.353-2.092l.082-.031a174.183,174.183,0,0,1,18.809-5.5c.962-.238,1.72-.427,2.2-.555a1.248,1.248,0,0,0,.7-.627,11.381,11.381,0,0,0,.753-3.376.372.372,0,0,0-.316-.436.212.212,0,0,1,.117-.407.791.791,0,0,1,.621.871,11.772,11.772,0,0,1-.778,3.494,1.634,1.634,0,0,1-.989.89c-.488.13-1.248.319-2.212.558a173.886,173.886,0,0,0-18.758,5.483l-.083.032c-.732.281-1.1.422-1.082,1.689a.212.212,0,0,1-.209.215h0" transform="translate(-91.549 -93.975)"/><path class="v" d="M449.884,438.474h-45.76a.212.212,0,1,1,0-.423H450.1c-.071.14-.14.283-.212.423" transform="translate(-114.485 -122.289)"/><path class="v" d="M466.48,410.311h-.024a.212.212,0,0,1-.187-.235c.046-.4.106-.867.17-1.379a41.891,41.891,0,0,0,.469-5.35,8.812,8.812,0,0,0-.208-1.256,12.013,12.013,0,0,1-.305-2.043c-.033-1.616,1.368-10.231,1.649-11.941a54.355,54.355,0,0,0,.021-10.74,21.94,21.94,0,0,1-.087-2.322,19.268,19.268,0,0,0-.139-2.75,9.694,9.694,0,0,0-2.209-4.288.212.212,0,0,1,.333-.263,10.066,10.066,0,0,1,2.3,4.491,19.493,19.493,0,0,1,.143,2.809,21.824,21.824,0,0,0,.085,2.278,54.765,54.765,0,0,1-.025,10.852c-.773,4.708-1.668,10.64-1.642,11.864a11.7,11.7,0,0,0,.3,1.966,8.793,8.793,0,0,1,.217,1.33,42.059,42.059,0,0,1-.471,5.416c-.065.509-.125.978-.17,1.373a.212.212,0,0,1-.211.188" transform="translate(-139.161 -94.125)"/><path class="v" d="M407.875,411.127h-.022a.211.211,0,0,1-.188-.233c.934-8.819.688-14.649.173-24.193-.013-.232-.055-.65-.1-1.133a29.891,29.891,0,0,1-.233-3.7c.008-.154.029-.358.053-.594a10.2,10.2,0,0,0,0-2.914,41.2,41.2,0,0,0-1.4-4.761c-.4-1.184-.814-2.409-1.134-3.634a.212.212,0,1,1,.41-.107c.317,1.211.728,2.428,1.126,3.606a41.437,41.437,0,0,1,1.411,4.81,10.535,10.535,0,0,1,0,3.044c-.024.23-.044.429-.052.572a29.823,29.823,0,0,0,.232,3.632c.052.509.093.911.106,1.154.516,9.566.762,15.41-.175,24.26a.211.211,0,0,1-.211.19" transform="translate(-114.928 -94.941)"/><path class="q" d="M363.322,332.775c-8.14-1.363-32.608-.654-37.761-.088a22.159,22.159,0,0,0-7.669,1.965,113.432,113.432,0,0,0-11.017,5.914c-1.482.9-6.149,3.975-5.335,6.065.872,2.24,13.418-1.195,15.776-1.966,2.206-.722,17.043-5.136,21.942-5.9a108.5,108.5,0,0,1,14.178-1.193c2.552-.109,5.978.094,8-1.567,1.566-1.286,3.471-2.964,1.884-3.23" transform="translate(-73.486 -79.852)"/><path class="r" d="M218.75,388.2s1.633,3.583,4.734,3.583c0,0,10.529,2.486,43.095.512,0,0,25.873-1.536,33.137-2.559s4.979-.8,4.979-.8,1.877-.439,1.224.512l-9.386,6.288a67.064,67.064,0,0,1-13.467,2.632s-18.773,3-22.2,3.875a27.086,27.086,0,0,0-7.917,3.875s-2.122,1.682-3.428,1.755H224.055s-2.285-1.244-3.509-5.264l-.816-2.34s-5.876-4.9-5.876-6.361c0,0,2.2-7.458,4.9-5.7" transform="translate(-38.438 -102.237)"/><path class="r" d="M227.226,426.717l-2.172,6.01s-.482,1.9,1.086,1.9a303.957,303.957,0,0,0,30.918.164,2.272,2.272,0,0,0,2.251-2.479l-3.055-4.837s-.644-1.061-1.608-.963a143.724,143.724,0,0,1-27.42.2" transform="translate(-42.892 -117.669)"/><path class="r" d="M294.3,423.894l21.791-4.343s3.7-1.045,4.825,1.367c0,0,2.171,6.031,2.251,9.167H300.494s-2.734.723-5.387-3.86c0,0-1.454-2.2-.8-2.332" transform="translate(-70.561 -114.797)"/><path class="r" d="M209.908,417.173v9.071a3.265,3.265,0,0,0,2.483,2.387l3.819,1.241s1.05,0,1.433-1.432l.764-3.437s-5.156-1.337-5.251-3.247c0,0-1.623-4.392-3.247-4.583" transform="translate(-36.86 -113.935)"/><path class="w" d="M330.041,427.118c0,.142,0,.286,0,.432,0,.555-.013,1.127-.007,1.695a1.545,1.545,0,0,1-1.212.6,1.522,1.522,0,0,1-1.076-.449,1.729,1.729,0,0,1-.1-2.329,1.524,1.524,0,0,1,2.4.053" transform="translate(-83.806 -117.669)"/><path class="w" d="M214.319,427.118c0,.142,0,.286,0,.432,0,.555-.013,1.127-.007,1.695a1.545,1.545,0,0,1-1.212.6,1.522,1.522,0,0,1-1.076-.449,1.728,1.728,0,0,1-.1-2.329,1.523,1.523,0,0,1,2.4.053" transform="translate(-37.503 -117.669)"/><path class="x" d="M254.775,425.758h-22.3a1.422,1.422,0,0,1-1.422-1.422v-4.26a1.421,1.421,0,0,1,1.422-1.421h22.3a1.421,1.421,0,0,1,1.422,1.421v4.26a1.422,1.422,0,0,1-1.422,1.422" transform="translate(-45.321 -114.528)"/><path class="y" d="M521.235,199.982h12.687a7.379,7.379,0,0,1,0,14.758H521.235v12.687a7.378,7.378,0,1,1-14.757,0V214.74H493.79a7.379,7.379,0,0,1,0-14.758h12.688V187.3a7.378,7.378,0,1,1,14.757,0Z" transform="translate(-147.495 -19.003)"/><path class="z" d="M521.632,191.586h0a3.487,3.487,0,0,1,3.476,3.477V208.08h13.017a3.476,3.476,0,0,1,0,6.953H525.108V228.05a3.476,3.476,0,0,1-6.953,0V215.033H505.138a3.476,3.476,0,1,1,0-6.953h13.017V195.063a3.487,3.487,0,0,1,3.476-3.477" transform="translate(-155.597 -22.673)"/></g></svg>